<?xml version="1.0" standalone="no"?>
<!DOCTYPE svg PUBLIC "-//W3C//DTD SVG 1.1//EN"
  "http://www.w3.org/Graphics/SVG/1.1/DTD/svg11.dtd">
<svg baseProfile="full" height="100%" version="1.1" width="100%" xmlns="http://www.w3.org/2000/svg" xmlns:ev="http://www.w3.org/2001/xml-events" xmlns:xlink="http://www.w3.org/1999/xlink"><defs><marker fill="black" id="id20" markerHeight="10" markerUnits="strokeWidth" markerWidth="8" orient="auto" overflow="visible" refX="0" refY="5" stroke="none" viewBox="0 0 10 5"><path d="M 0 0 L 10 5 L 0 10 z" /></marker></defs><rect fill="#EBD9B2" height="30" stroke="#000000" width="123.75" x="167" y="201" /><rect fill="#ffffff" height="20" stroke="rgb(0,0,0)" width="123.75" x="167" y="231" /><rect fill="#EBD9B2" height="30" stroke="#000000" width="214.5" x="166" y="318" /><rect fill="#ffffff" height="20" stroke="rgb(0,0,0)" width="214.5" x="166" y="348" /><rect fill="#EBD9B2" height="30" stroke="#000000" width="214.5" x="415" y="200" /><rect fill="#ffffff" height="110" stroke="rgb(0,0,0)" width="214.5" x="415" y="230" /><line marker-end="url(#id20)" stroke="#000000" x1="385.5" x2="410" y1="358" y2="245" /><g style="font-family: Helvetica, Arial, FreeSans, Sans, sans, sans-serif;"><text style="font-size:14px" x="172" y="221">SnpEff Download</text><text style="font-size:10px" x="172" y="246">snpeff_db</text><text style="font-size:14px" x="171" y="338">SnpEff Available Databases</text><text style="font-size:10px" x="171" y="363">snpeff_dbs</text><text style="font-size:14px" x="420" y="220">SnpEff</text><text style="font-size:10px" x="420" y="245">Sequence changes (SNPs, MNPs, InDels)</text><text style="font-size:10px" x="420" y="260">SnpEff4.1 Genome Data</text><text style="font-size:10px" x="420" y="275">Use custom interval file for annotation</text><text style="font-size:10px" x="420" y="290">Only use the transcripts in this file.</text><text style="font-size:10px" x="420" y="320">snpeff_output</text><text style="font-size:10px" x="420" y="335">statsFile</text><line stroke="rgb(0,0,0)" x1="415" x2="629.5" y1="300" y2="300" /><circle cx="380.5" cy="358" fill="#ffffff" r="5" stroke="#000000" /></g></svg>