<?xml version="1.0" standalone="no"?>
<!DOCTYPE svg PUBLIC "-//W3C//DTD SVG 1.1//EN"
  "http://www.w3.org/Graphics/SVG/1.1/DTD/svg11.dtd">
<svg baseProfile="full" height="100%" version="1.1" width="100%" xmlns="http://www.w3.org/2000/svg" xmlns:ev="http://www.w3.org/2001/xml-events" xmlns:xlink="http://www.w3.org/1999/xlink"><defs><marker fill="black" id="id1" markerHeight="10" markerUnits="strokeWidth" markerWidth="8" orient="auto" overflow="visible" refX="0" refY="5" stroke="none" viewBox="0 0 10 5"><path d="M 0 0 L 10 5 L 0 10 z" /></marker><marker fill="black" id="id2" markerHeight="10" markerUnits="strokeWidth" markerWidth="8" orient="auto" overflow="visible" refX="0" refY="5" stroke="none" viewBox="0 0 10 5"><path d="M 0 0 L 10 5 L 0 10 z" /></marker><marker fill="black" id="id3" markerHeight="10" markerUnits="strokeWidth" markerWidth="8" orient="auto" overflow="visible" refX="0" refY="5" stroke="none" viewBox="0 0 10 5"><path d="M 0 0 L 10 5 L 0 10 z" /></marker><marker fill="black" id="id4" markerHeight="10" markerUnits="strokeWidth" markerWidth="8" orient="auto" overflow="visible" refX="0" refY="5" stroke="none" viewBox="0 0 10 5"><path d="M 0 0 L 10 5 L 0 10 z" /></marker><marker fill="black" id="id5" markerHeight="10" markerUnits="strokeWidth" markerWidth="8" orient="auto" overflow="visible" refX="0" refY="5" stroke="none" viewBox="0 0 10 5"><path d="M 0 0 L 10 5 L 0 10 z" /></marker><marker fill="black" id="id6" markerHeight="10" markerUnits="strokeWidth" markerWidth="8" orient="auto" overflow="visible" refX="0" refY="5" stroke="none" viewBox="0 0 10 5"><path d="M 0 0 L 10 5 L 0 10 z" /></marker><marker fill="black" id="id7" markerHeight="10" markerUnits="strokeWidth" markerWidth="8" orient="auto" overflow="visible" refX="0" refY="5" stroke="none" viewBox="0 0 10 5"><path d="M 0 0 L 10 5 L 0 10 z" /></marker><marker fill="black" id="id8" markerHeight="10" markerUnits="strokeWidth" markerWidth="8" orient="auto" overflow="visible" refX="0" refY="5" stroke="none" viewBox="0 0 10 5"><path d="M 0 0 L 10 5 L 0 10 z" /></marker><marker fill="black" id="id9" markerHeight="10" markerUnits="strokeWidth" markerWidth="8" orient="auto" overflow="visible" refX="0" refY="5" stroke="none" viewBox="0 0 10 5"><path d="M 0 0 L 10 5 L 0 10 z" /></marker></defs><rect fill="#EBD9B2" height="30" stroke="#000000" width="107.25" x="5" y="10" /><rect fill="#ffffff" height="20" stroke="rgb(0,0,0)" width="107.25" x="5" y="40" /><rect fill="#EBD9B2" height="30" stroke="#000000" width="107.25" x="5" y="130" /><rect fill="#ffffff" height="20" stroke="rgb(0,0,0)" width="107.25" x="5" y="160" /><rect fill="#EBD9B2" height="30" stroke="#000000" width="107.25" x="5" y="250" /><rect fill="#ffffff" height="20" stroke="rgb(0,0,0)" width="107.25" x="5" y="280" /><rect fill="#EBD9B2" height="30" stroke="#000000" width="225.5" x="225" y="10" /><rect fill="#ffffff" height="95" stroke="rgb(0,0,0)" width="225.5" x="225" y="40" /><rect fill="#EBD9B2" height="30" stroke="#000000" width="225.5" x="225" y="130" /><rect fill="#ffffff" height="95" stroke="rgb(0,0,0)" width="225.5" x="225" y="160" /><rect fill="#EBD9B2" height="30" stroke="#000000" width="198.0" x="225" y="250" /><rect fill="#ffffff" height="155" stroke="rgb(0,0,0)" width="198.0" x="225" y="280" /><rect fill="#EBD9B2" height="30" stroke="#000000" width="225.5" x="445" y="10" /><rect fill="#ffffff" height="95" stroke="rgb(0,0,0)" width="225.5" x="445" y="40" /><rect fill="#EBD9B2" height="30" stroke="#000000" width="225.5" x="445" y="130" /><rect fill="#ffffff" height="95" stroke="rgb(0,0,0)" width="225.5" x="445" y="160" /><rect fill="#EBD9B2" height="30" stroke="#000000" width="280.5" x="445" y="250" /><rect fill="#ffffff" height="80" stroke="rgb(0,0,0)" width="280.5" x="445" y="280" /><line marker-end="url(#id1)" stroke="#000000" x1="117.25" x2="220" y1="50" y2="55" /><line marker-end="url(#id2)" stroke="#000000" x1="117.25" x2="220" y1="170" y2="175" /><line marker-end="url(#id3)" stroke="#000000" x1="117.25" x2="220" y1="50" y2="295" /><line marker-end="url(#id4)" stroke="#000000" x1="117.25" x2="220" y1="170" y2="310" /><line marker-end="url(#id5)" stroke="#000000" x1="428.0" x2="440" y1="365" y2="55" /><line marker-end="url(#id6)" stroke="#000000" x1="428.0" x2="440" y1="380" y2="175" /><line marker-end="url(#id7)" stroke="#000000" x1="117.25" x2="440" y1="290" y2="295" /><line marker-end="url(#id8)" stroke="#000000" x1="428.0" x2="440" y1="365" y2="310" /><line marker-end="url(#id9)" stroke="#000000" x1="428.0" x2="440" y1="380" y2="325" /><g style="font-family: Helvetica, Arial, FreeSans, Sans, sans, sans-serif;"><text style="font-size:14px" x="10" y="30">Input dataset</text><text style="font-size:10px" x="10" y="55">output</text><text style="font-size:14px" x="10" y="150">Input dataset</text><text style="font-size:10px" x="10" y="175">output</text><text style="font-size:14px" x="10" y="270">Input dataset</text><text style="font-size:10px" x="10" y="295">output</text><text style="font-size:14px" x="230" y="30">FastQC</text><text style="font-size:10px" x="230" y="55">Short read data from your current history</text><text style="font-size:10px" x="230" y="70">Contaminant list</text><text style="font-size:10px" x="230" y="85">Submodule and Limit specifing file</text><text style="font-size:10px" x="230" y="115">html_file</text><text style="font-size:10px" x="230" y="130">text_file</text><text style="font-size:14px" x="230" y="150">FastQC</text><text style="font-size:10px" x="230" y="175">Short read data from your current history</text><text style="font-size:10px" x="230" y="190">Contaminant list</text><text style="font-size:10px" x="230" y="205">Submodule and Limit specifing file</text><text style="font-size:10px" x="230" y="235">html_file</text><text style="font-size:10px" x="230" y="250">text_file</text><text style="font-size:14px" x="230" y="270">Trimmomatic</text><text style="font-size:10px" x="230" y="295">Input FASTQ file (R1/first of pair)</text><text style="font-size:10px" x="230" y="310">Input FASTQ file (R2/second of pair)</text><text style="font-size:10px" x="230" y="340">fastq_out_paired</text><text style="font-size:10px" x="230" y="355">fastq_out_unpaired</text><text style="font-size:10px" x="230" y="370">fastq_out_r1_paired</text><text style="font-size:10px" x="230" y="385">fastq_out_r2_paired</text><text style="font-size:10px" x="230" y="400">fastq_out_r1_unpaired</text><text style="font-size:10px" x="230" y="415">fastq_out_r2_unpaired</text><text style="font-size:10px" x="230" y="430">fastq_out</text><text style="font-size:14px" x="450" y="30">FastQC</text><text style="font-size:10px" x="450" y="55">Short read data from your current history</text><text style="font-size:10px" x="450" y="70">Contaminant list</text><text style="font-size:10px" x="450" y="85">Submodule and Limit specifing file</text><text style="font-size:10px" x="450" y="115">html_file</text><text style="font-size:10px" x="450" y="130">text_file</text><text style="font-size:14px" x="450" y="150">FastQC</text><text style="font-size:10px" x="450" y="175">Short read data from your current history</text><text style="font-size:10px" x="450" y="190">Contaminant list</text><text style="font-size:10px" x="450" y="205">Submodule and Limit specifing file</text><text style="font-size:10px" x="450" y="235">html_file</text><text style="font-size:10px" x="450" y="250">text_file</text><text style="font-size:14px" x="450" y="270">Map with BWA</text><text style="font-size:10px" x="450" y="295">Use the following dataset as the reference sequence</text><text style="font-size:10px" x="450" y="310">Select first set of reads</text><text style="font-size:10px" x="450" y="325">Select second set of reads</text><text style="font-size:10px" x="450" y="355">bam_output</text><line stroke="rgb(0,0,0)" x1="225" x2="450.5" y1="95" y2="95" /><circle cx="112.25" cy="50" fill="#ffffff" r="5" stroke="#000000" /><line stroke="rgb(0,0,0)" x1="225" x2="450.5" y1="215" y2="215" /><circle cx="112.25" cy="170" fill="#ffffff" r="5" stroke="#000000" /><line stroke="rgb(0,0,0)" x1="225" x2="423.0" y1="320" y2="320" /><circle cx="112.25" cy="50" fill="#ffffff" r="5" stroke="#000000" /><circle cx="112.25" cy="170" fill="#ffffff" r="5" stroke="#000000" /><line stroke="rgb(0,0,0)" x1="445" x2="670.5" y1="95" y2="95" /><circle cx="423.0" cy="365" fill="#ffffff" r="5" stroke="#000000" /><line stroke="rgb(0,0,0)" x1="445" x2="670.5" y1="215" y2="215" /><circle cx="423.0" cy="380" fill="#ffffff" r="5" stroke="#000000" /><line stroke="rgb(0,0,0)" x1="445" x2="725.5" y1="335" y2="335" /><circle cx="112.25" cy="290" fill="#ffffff" r="5" stroke="#000000" /><circle cx="423.0" cy="365" fill="#ffffff" r="5" stroke="#000000" /><circle cx="423.0" cy="380" fill="#ffffff" r="5" stroke="#000000" /></g></svg>