<?xml version="1.0" standalone="no"?>
<!DOCTYPE svg PUBLIC "-//W3C//DTD SVG 1.1//EN"
  "http://www.w3.org/Graphics/SVG/1.1/DTD/svg11.dtd">
<svg baseProfile="full" height="100%" version="1.1" width="100%" xmlns="http://www.w3.org/2000/svg" xmlns:ev="http://www.w3.org/2001/xml-events" xmlns:xlink="http://www.w3.org/1999/xlink"><defs><marker fill="black" id="id10" markerHeight="10" markerUnits="strokeWidth" markerWidth="8" orient="auto" overflow="visible" refX="0" refY="5" stroke="none" viewBox="0 0 10 5"><path d="M 0 0 L 10 5 L 0 10 z" /></marker><marker fill="black" id="id11" markerHeight="10" markerUnits="strokeWidth" markerWidth="8" orient="auto" overflow="visible" refX="0" refY="5" stroke="none" viewBox="0 0 10 5"><path d="M 0 0 L 10 5 L 0 10 z" /></marker><marker fill="black" id="id12" markerHeight="10" markerUnits="strokeWidth" markerWidth="8" orient="auto" overflow="visible" refX="0" refY="5" stroke="none" viewBox="0 0 10 5"><path d="M 0 0 L 10 5 L 0 10 z" /></marker><marker fill="black" id="id13" markerHeight="10" markerUnits="strokeWidth" markerWidth="8" orient="auto" overflow="visible" refX="0" refY="5" stroke="none" viewBox="0 0 10 5"><path d="M 0 0 L 10 5 L 0 10 z" /></marker><marker fill="black" id="id14" markerHeight="10" markerUnits="strokeWidth" markerWidth="8" orient="auto" overflow="visible" refX="0" refY="5" stroke="none" viewBox="0 0 10 5"><path d="M 0 0 L 10 5 L 0 10 z" /></marker><marker fill="black" id="id15" markerHeight="10" markerUnits="strokeWidth" markerWidth="8" orient="auto" overflow="visible" refX="0" refY="5" stroke="none" viewBox="0 0 10 5"><path d="M 0 0 L 10 5 L 0 10 z" /></marker><marker fill="black" id="id16" markerHeight="10" markerUnits="strokeWidth" markerWidth="8" orient="auto" overflow="visible" refX="0" refY="5" stroke="none" viewBox="0 0 10 5"><path d="M 0 0 L 10 5 L 0 10 z" /></marker><marker fill="black" id="id17" markerHeight="10" markerUnits="strokeWidth" markerWidth="8" orient="auto" overflow="visible" refX="0" refY="5" stroke="none" viewBox="0 0 10 5"><path d="M 0 0 L 10 5 L 0 10 z" /></marker><marker fill="black" id="id18" markerHeight="10" markerUnits="strokeWidth" markerWidth="8" orient="auto" overflow="visible" refX="0" refY="5" stroke="none" viewBox="0 0 10 5"><path d="M 0 0 L 10 5 L 0 10 z" /></marker><marker fill="black" id="id19" markerHeight="10" markerUnits="strokeWidth" markerWidth="8" orient="auto" overflow="visible" refX="0" refY="5" stroke="none" viewBox="0 0 10 5"><path d="M 0 0 L 10 5 L 0 10 z" /></marker></defs><rect fill="#EBD9B2" height="30" stroke="#000000" width="107.25" x="5" y="10" /><rect fill="#ffffff" height="20" stroke="rgb(0,0,0)" width="107.25" x="5" y="40" /><rect fill="#EBD9B2" height="30" stroke="#000000" width="107.25" x="5" y="130" /><rect fill="#ffffff" height="20" stroke="rgb(0,0,0)" width="107.25" x="5" y="160" /><rect fill="#EBD9B2" height="30" stroke="#000000" width="107.25" x="5" y="250" /><rect fill="#ffffff" height="20" stroke="rgb(0,0,0)" width="107.25" x="5" y="280" /><rect fill="#EBD9B2" height="30" stroke="#000000" width="107.25" x="5" y="370" /><rect fill="#ffffff" height="20" stroke="rgb(0,0,0)" width="107.25" x="5" y="400" /><rect fill="#EBD9B2" height="30" stroke="#000000" width="107.25" x="5" y="490" /><rect fill="#ffffff" height="20" stroke="rgb(0,0,0)" width="107.25" x="5" y="520" /><rect fill="#EBD9B2" height="30" stroke="#000000" width="225.5" x="225" y="10" /><rect fill="#ffffff" height="95" stroke="rgb(0,0,0)" width="225.5" x="225" y="40" /><rect fill="#EBD9B2" height="30" stroke="#000000" width="225.5" x="225" y="130" /><rect fill="#ffffff" height="95" stroke="rgb(0,0,0)" width="225.5" x="225" y="160" /><rect fill="#EBD9B2" height="30" stroke="#000000" width="198.0" x="225" y="250" /><rect fill="#ffffff" height="155" stroke="rgb(0,0,0)" width="198.0" x="225" y="280" /><rect fill="#EBD9B2" height="30" stroke="#000000" width="225.5" x="445" y="10" /><rect fill="#ffffff" height="95" stroke="rgb(0,0,0)" width="225.5" x="445" y="40" /><rect fill="#EBD9B2" height="30" stroke="#000000" width="225.5" x="445" y="130" /><rect fill="#ffffff" height="95" stroke="rgb(0,0,0)" width="225.5" x="445" y="160" /><rect fill="#EBD9B2" height="30" stroke="#000000" width="148.5" x="445" y="250" /><rect fill="#ffffff" height="80" stroke="rgb(0,0,0)" width="148.5" x="445" y="280" /><rect fill="#EBD9B2" height="30" stroke="#000000" width="104.5" x="665" y="10" /><rect fill="#ffffff" height="50" stroke="rgb(0,0,0)" width="104.5" x="665" y="40" /><line marker-end="url(#id10)" stroke="#000000" x1="117.25" x2="220" y1="410" y2="55" /><line marker-end="url(#id11)" stroke="#000000" x1="117.25" x2="220" y1="530" y2="175" /><line marker-end="url(#id12)" stroke="#000000" x1="117.25" x2="220" y1="410" y2="295" /><line marker-end="url(#id13)" stroke="#000000" x1="117.25" x2="220" y1="530" y2="310" /><line marker-end="url(#id14)" stroke="#000000" x1="428.0" x2="440" y1="365" y2="55" /><line marker-end="url(#id15)" stroke="#000000" x1="428.0" x2="440" y1="380" y2="175" /><line marker-end="url(#id16)" stroke="#000000" x1="117.25" x2="440" y1="170" y2="325" /><line marker-end="url(#id17)" stroke="#000000" x1="428.0" x2="440" y1="380" y2="310" /><line marker-end="url(#id18)" stroke="#000000" x1="428.0" x2="440" y1="365" y2="295" /><line marker-end="url(#id19)" stroke="#000000" x1="598.5" x2="660" y1="350" y2="55" /><g style="font-family: Helvetica, Arial, FreeSans, Sans, sans, sans-serif;"><text style="font-size:14px" x="10" y="30">Input dataset</text><text style="font-size:10px" x="10" y="55">output</text><text style="font-size:14px" x="10" y="150">Input dataset</text><text style="font-size:10px" x="10" y="175">output</text><text style="font-size:14px" x="10" y="270">Input dataset</text><text style="font-size:10px" x="10" y="295">output</text><text style="font-size:14px" x="10" y="390">Input dataset</text><text style="font-size:10px" x="10" y="415">output</text><text style="font-size:14px" x="10" y="510">Input dataset</text><text style="font-size:10px" x="10" y="535">output</text><text style="font-size:14px" x="230" y="30">FastQC</text><text style="font-size:10px" x="230" y="55">Short read data from your current history</text><text style="font-size:10px" x="230" y="70">Contaminant list</text><text style="font-size:10px" x="230" y="85">Submodule and Limit specifing file</text><text style="font-size:10px" x="230" y="115">html_file</text><text style="font-size:10px" x="230" y="130">text_file</text><text style="font-size:14px" x="230" y="150">FastQC</text><text style="font-size:10px" x="230" y="175">Short read data from your current history</text><text style="font-size:10px" x="230" y="190">Contaminant list</text><text style="font-size:10px" x="230" y="205">Submodule and Limit specifing file</text><text style="font-size:10px" x="230" y="235">html_file</text><text style="font-size:10px" x="230" y="250">text_file</text><text style="font-size:14px" x="230" y="270">Trimmomatic</text><text style="font-size:10px" x="230" y="295">Input FASTQ file (R1/first of pair)</text><text style="font-size:10px" x="230" y="310">Input FASTQ file (R2/second of pair)</text><text style="font-size:10px" x="230" y="340">fastq_out_paired</text><text style="font-size:10px" x="230" y="355">fastq_out_unpaired</text><text style="font-size:10px" x="230" y="370">fastq_out_r1_paired</text><text style="font-size:10px" x="230" y="385">fastq_out_r2_paired</text><text style="font-size:10px" x="230" y="400">fastq_out_r1_unpaired</text><text style="font-size:10px" x="230" y="415">fastq_out_r2_unpaired</text><text style="font-size:10px" x="230" y="430">fastq_out</text><text style="font-size:14px" x="450" y="30">FastQC</text><text style="font-size:10px" x="450" y="55">Short read data from your current history</text><text style="font-size:10px" x="450" y="70">Contaminant list</text><text style="font-size:10px" x="450" y="85">Submodule and Limit specifing file</text><text style="font-size:10px" x="450" y="115">html_file</text><text style="font-size:10px" x="450" y="130">text_file</text><text style="font-size:14px" x="450" y="150">FastQC</text><text style="font-size:10px" x="450" y="175">Short read data from your current history</text><text style="font-size:10px" x="450" y="190">Contaminant list</text><text style="font-size:10px" x="450" y="205">Submodule and Limit specifing file</text><text style="font-size:10px" x="450" y="235">html_file</text><text style="font-size:10px" x="450" y="250">text_file</text><text style="font-size:14px" x="450" y="270">HISAT</text><text style="font-size:10px" x="450" y="295">Forward reads</text><text style="font-size:10px" x="450" y="310">Reverse reads</text><text style="font-size:10px" x="450" y="325">Select the reference genome</text><text style="font-size:10px" x="450" y="355">output_alignments</text><text style="font-size:14px" x="670" y="30">Flagstat</text><text style="font-size:10px" x="670" y="55">BAM File to Convert</text><text style="font-size:10px" x="670" y="85">output1</text><line stroke="rgb(0,0,0)" x1="225" x2="450.5" y1="95" y2="95" /><circle cx="112.25" cy="410" fill="#ffffff" r="5" stroke="#000000" /><line stroke="rgb(0,0,0)" x1="225" x2="450.5" y1="215" y2="215" /><circle cx="112.25" cy="530" fill="#ffffff" r="5" stroke="#000000" /><line stroke="rgb(0,0,0)" x1="225" x2="423.0" y1="320" y2="320" /><circle cx="112.25" cy="410" fill="#ffffff" r="5" stroke="#000000" /><circle cx="112.25" cy="530" fill="#ffffff" r="5" stroke="#000000" /><line stroke="rgb(0,0,0)" x1="445" x2="670.5" y1="95" y2="95" /><circle cx="423.0" cy="365" fill="#ffffff" r="5" stroke="#000000" /><line stroke="rgb(0,0,0)" x1="445" x2="670.5" y1="215" y2="215" /><circle cx="423.0" cy="380" fill="#ffffff" r="5" stroke="#000000" /><line stroke="rgb(0,0,0)" x1="445" x2="593.5" y1="335" y2="335" /><circle cx="112.25" cy="170" fill="#ffffff" r="5" stroke="#000000" /><circle cx="423.0" cy="380" fill="#ffffff" r="5" stroke="#000000" /><circle cx="423.0" cy="365" fill="#ffffff" r="5" stroke="#000000" /><line stroke="rgb(0,0,0)" x1="665" x2="769.5" y1="65" y2="65" /><circle cx="593.5" cy="350" fill="#ffffff" r="5" stroke="#000000" /></g></svg>